<svg width="148" height="148" viewBox="0 0 148 148" fill="none" xmlns="http://www.w3.org/2000/svg">
<path fill-rule="evenodd" clip-rule="evenodd" d="M144.912 125.863L144.913 125.865C144.913 125.865 144.915 125.866 143.501 127.28L144.915 125.866C145.696 126.647 145.696 127.914 144.915 128.695C144.141 129.469 142.89 129.475 142.108 128.715C142.105 128.713 142.101 128.709 142.095 128.704C142.072 128.685 142.026 128.646 141.958 128.596C141.821 128.495 141.609 128.36 141.338 128.243C140.816 128.02 140.078 127.863 139.133 128.178C138.491 128.392 137.741 129.332 137.72 130.529C137.711 131.055 137.857 131.512 138.138 131.869C138.411 132.215 138.926 132.612 139.92 132.825C144.393 133.784 146.992 136.834 147.221 140.188C147.449 143.528 145.23 146.696 141.283 147.26C139.089 147.574 137.222 147.101 135.927 146.567C135.277 146.3 134.756 146.011 134.39 145.784C134.206 145.669 134.059 145.569 133.952 145.493C133.899 145.454 133.855 145.422 133.821 145.397C133.814 145.391 133.807 145.386 133.801 145.381C133.792 145.374 133.785 145.369 133.779 145.364L133.763 145.351L133.757 145.346L133.754 145.344L133.752 145.343C133.752 145.343 133.751 145.342 135.001 143.78L133.751 145.342C132.889 144.652 132.749 143.393 133.439 142.531C134.125 141.673 135.375 141.53 136.237 142.208C136.241 142.211 136.244 142.214 136.248 142.217L136.245 142.215L136.237 142.208C136.242 142.212 136.256 142.222 136.277 142.238C136.321 142.269 136.396 142.321 136.502 142.386C136.714 142.518 137.037 142.699 137.45 142.868C138.279 143.21 139.412 143.487 140.718 143.3C142.539 143.04 143.319 141.763 143.23 140.46C143.142 139.173 142.108 137.385 139.081 136.736C137.325 136.36 135.934 135.534 134.997 134.346C134.068 133.167 133.698 131.776 133.721 130.46C133.764 127.972 135.263 125.251 137.868 124.383C139.924 123.698 141.685 124.04 142.913 124.567C143.517 124.826 143.993 125.128 144.324 125.371C144.491 125.493 144.624 125.603 144.722 125.688C144.772 125.731 144.812 125.768 144.845 125.798C144.861 125.813 144.874 125.827 144.886 125.838L144.902 125.854L144.909 125.86L144.912 125.863ZM136.237 142.208C136.235 142.207 136.235 142.207 136.237 142.208V142.208ZM136.249 142.218L136.248 142.217L136.249 142.218ZM73.9094 124.37C74.7472 124.11 75.656 124.427 76.1511 125.151L85.5005 138.815V126.28C85.5005 125.176 86.396 124.28 87.5005 124.28C88.6051 124.28 89.5005 125.176 89.5005 126.28V145.28C89.5005 146.157 88.9293 146.932 88.0916 147.191C87.2539 147.45 86.3451 147.133 85.8499 146.41L76.5005 132.745V145.28C76.5005 146.385 75.6051 147.28 74.5005 147.28C73.396 147.28 72.5005 146.385 72.5005 145.28V126.28C72.5005 125.403 73.0717 124.629 73.9094 124.37ZM9.50054 124.28C10.3217 124.28 11.0594 124.782 11.3608 125.546L18.8608 144.546C19.2664 145.573 18.7623 146.735 17.7349 147.141C16.7074 147.546 15.5458 147.042 15.1402 146.015L9.50054 131.727L3.86085 146.015C3.45528 147.042 2.29362 147.546 1.2662 147.141C0.23878 146.735 -0.265337 145.573 0.140224 144.546L7.64022 125.546C7.94171 124.782 8.67941 124.28 9.50054 124.28ZM27.5005 126.28C27.5005 125.176 28.396 124.28 29.5005 124.28H36.0005C36.0005 127.619 35.9995 124.28 36.0035 124.28L36.0066 124.28L36.0132 124.28L36.0284 124.28L36.0663 124.281C36.0948 124.282 36.1298 124.283 36.1709 124.285C36.2529 124.289 36.3596 124.296 36.4875 124.31C36.7426 124.336 37.0863 124.387 37.4895 124.486C38.293 124.681 39.3611 125.071 40.4306 125.853C42.6679 127.488 44.5005 130.523 44.5005 135.78C44.5005 141.038 42.6679 144.073 40.4306 145.708C39.3611 146.489 38.293 146.879 37.4895 147.075C37.0863 147.173 36.7426 147.224 36.4875 147.251C36.3596 147.264 36.2529 147.272 36.1709 147.276C36.1298 147.278 36.0948 147.279 36.0663 147.279L36.0284 147.28L36.0132 147.28L36.0066 147.28L36.0035 147.28C35.9994 147.28 36.0005 143.941 36.0005 147.28H29.5005C28.396 147.28 27.5005 146.385 27.5005 145.28V126.28ZM35.9772 143.28C35.991 143.28 36.0236 143.278 36.0722 143.273C36.1725 143.262 36.3366 143.239 36.5428 143.189C36.9581 143.088 37.515 142.884 38.0705 142.478C39.0832 141.738 40.5005 140.023 40.5005 135.78C40.5005 131.538 39.0832 129.823 38.0705 129.083C37.515 128.677 36.9581 128.473 36.5428 128.372C36.3366 128.322 36.1725 128.299 36.0722 128.288C36.0236 128.283 35.991 128.281 35.9772 128.28H31.5005V143.28H35.9772ZM53.0005 126.28C53.0005 125.176 53.896 124.28 55.0005 124.28H61.5005C62.6051 124.28 63.5005 125.176 63.5005 126.28C63.5005 127.385 62.6051 128.28 61.5005 128.28H57.0005V133.78H61.0005C62.1051 133.78 63.0005 134.676 63.0005 135.78C63.0005 136.885 62.1051 137.78 61.0005 137.78H57.0005V143.28H61.5005C62.6051 143.28 63.5005 144.176 63.5005 145.28C63.5005 146.385 62.6051 147.28 61.5005 147.28H55.0005C53.896 147.28 53.0005 146.385 53.0005 145.28V126.28ZM98.0005 126.28C98.0005 125.176 98.896 124.28 100.001 124.28H110.001C111.105 124.28 112.001 125.176 112.001 126.28C112.001 127.385 111.105 128.28 110.001 128.28H107.001V145.28C107.001 146.385 106.105 147.28 105.001 147.28C103.896 147.28 103.001 146.385 103.001 145.28V128.28H100.001C98.896 128.28 98.0005 127.385 98.0005 126.28ZM122.501 124.28C123.605 124.28 124.501 125.176 124.501 126.28V145.28C124.501 146.385 123.605 147.28 122.501 147.28C121.396 147.28 120.501 146.385 120.501 145.28V126.28C120.501 125.176 121.396 124.28 122.501 124.28Z" fill="#7cb9e8"/>
<path d="M112.292 93.0499C107.983 93.0558 103.994 90.7792 101.806 87.0673L61.478 18.2705C58.0925 12.485 60.0367 5.05238 65.8223 1.66401C71.6078 -1.72142 79.0404 0.222774 82.4288 6.00829L122.757 74.8051C126.139 80.5818 124.201 88.0056 118.424 91.3881C116.571 92.4734 114.462 93.047 112.315 93.0499H112.295H112.292ZM71.9431 1.10222C65.8517 1.11105 60.9191 6.05535 60.928 12.1468C60.928 14.1086 61.4574 16.0322 62.4515 17.7235L102.78 86.5114C105.653 91.8822 112.336 93.9088 117.71 91.0351C123.08 88.1615 125.107 81.4789 122.233 76.1051C122.095 75.8463 121.948 75.5963 121.789 75.3492L81.4935 6.55243C79.5022 3.16995 75.8697 1.09634 71.946 1.10222H71.9431Z" fill="#7cb9e8"/>
<path d="M35.1123 94.9912C28.4061 94.9735 22.9853 89.5233 23 82.8172C23.0059 80.8818 23.4736 78.9758 24.3648 77.2581L61.1956 6.55243C64.2869 0.613965 71.6049 -1.69495 77.5433 1.39635C83.4671 4.49941 85.7701 11.8085 82.6994 17.747L45.8803 88.4615C43.7861 92.4734 39.6389 94.9912 35.1123 95V94.9882V94.9912ZM71.9519 1.10222C70.8254 1.10516 69.7048 1.2787 68.6283 1.61401C65.8282 2.49345 63.4987 4.45529 62.1545 7.06422L25.3354 77.7581C22.5177 83.176 24.6266 89.8527 30.0444 92.6676C35.4623 95.4853 42.139 93.3764 44.9538 87.9585L81.7288 17.2323C84.5407 11.8203 82.4318 5.15532 77.0198 2.34345C75.4432 1.52577 73.6932 1.09928 71.9166 1.09928H71.949L71.9519 1.10222Z" fill="#7cb9e8"/>
<path d="M72.5519 36.0453C72.5519 36.0453 81.6199 19.9241 83.2347 14.715C84.8465 9.50601 80.761 0.555664 71.7254 0.555664C62.6897 0.555664 58.9631 9.82073 60.8367 15.6415C62.7103 21.4624 72.5548 36.0453 72.5548 36.0453H72.5519Z" fill="#7cb9e8"/>
</svg>
